%YAML 1.1
%TAG !u! tag:unity3d.com,2011:
--- !u!43 &4300000
Mesh:
  m_ObjectHideFlags: 0
  m_CorrespondingSourceObject: {fileID: 0}
  m_PrefabInstance: {fileID: 0}
  m_PrefabAsset: {fileID: 0}
  m_Name: CharacterMesh
  serializedVersion: 12
  m_SubMeshes:
  - serializedVersion: 2
    firstByte: 0
    indexCount: 75
    topology: 0
    baseVertex: 0
    firstVertex: 0
    vertexCount: 27
    localAABB:
      m_Center: {x: -0.00000013411045, y: 0.034999996, z: 0}
      m_Extent: {x: 0.3476398, y: 0.315, z: 0}
  m_Shapes:
    vertices: []
    shapes: []
    channels: []
    fullWeights: []
  m_BindPose: []
  m_BoneNameHashes: 
  m_RootBoneNameHash: 0
  m_BonesAABB: []
  m_VariableBoneCountWeights:
    m_Data: 
  m_MeshCompression: 0
  m_IsReadable: 1
  m_KeepVertices: 0
  m_KeepIndices: 0
  m_IndexFormat: 1
  m_IndexBuffer: 0200000001000000000000000100000003000000000000000000000003000000040000000500000004000000030000000600000004000000050000000700000004000000060000000800000004000000070000000000000004000000090000000b000000090000000a0000000a000000090000000c0000000c000000090000000d0000000e0000000d000000090000000f0000000d0000000e000000100000000f0000000e00000011000000100000000e000000040000000e0000000900000004000000120000000e0000000e00000012000000130000001300000012000000140000001600000015000000120000001500000017000000120000001700000018000000120000001800000014000000120000001900000013000000140000001a0000001300000019000000
  m_VertexData:
    serializedVersion: 3
    m_VertexCount: 27
    m_Channels:
    - stream: 0
      offset: 0
      format: 0
      dimension: 3
    - stream: 0
      offset: 0
      format: 0
      dimension: 0
    - stream: 0
      offset: 0
      format: 0
      dimension: 0
    - stream: 0
      offset: 0
      format: 0
      dimension: 0
    - stream: 0
      offset: 0
      format: 0
      dimension: 0
    - stream: 0
      offset: 0
      format: 0
      dimension: 0
    - stream: 0
      offset: 0
      format: 0
      dimension: 0
    - stream: 0
      offset: 0
      format: 0
      dimension: 0
    - stream: 0
      offset: 0
      format: 0
      dimension: 0
    - stream: 0
      offset: 0
      format: 0
      dimension: 0
    - stream: 0
      offset: 0
      format: 0
      dimension: 0
    - stream: 0
      offset: 0
      format: 0
      dimension: 0
    - stream: 0
      offset: 0
      format: 0
      dimension: 0
    - stream: 0
      offset: 0
      format: 0
      dimension: 0
    m_DataSize: 324
    _typelessdata: d3fdb13e9b4b21bd00000000dd6daa3e7f81ddbd00000000ae48af3ead0895bd0000000003b5a33e92c611be00000000eda6563e295c8fbe0000000004319b3e743333be00000000b7f9903ed0a952be00000000d12b853e3bd16fbe00000000c7d06f3e052c85be00000000cfcf0d3eca77a43e00000000df07953dba48af3e00000000bf80dd3deb6daa3e00000000efd9153de537b23e00000000e85216b43333b33e0000000027d00dbea477a43e000000003fda15bde337b23e00000000070895bdb648af3e00000000e580ddbde76daa3e00000000f5a656be295c8fbe00000000dcfdb1be4b4d21bd0000000019b5a3be27c611be00000000f82b85bee3d06fbe000000001bd16fbede2b85be00000000d9f990be73a952be0000000020319bbe0e3333be00000000ee6daabea280ddbd00000000ba48afbec60795bd00000000
  m_CompressedMesh:
    m_Vertices:
      m_NumItems: 0
      m_Range: 0
      m_Start: 0
      m_Data: 
      m_BitSize: 0
    m_UV:
      m_NumItems: 0
      m_Range: 0
      m_Start: 0
      m_Data: 
      m_BitSize: 0
    m_Normals:
      m_NumItems: 0
      m_Range: 0
      m_Start: 0
      m_Data: 
      m_BitSize: 0
    m_Tangents:
      m_NumItems: 0
      m_Range: 0
      m_Start: 0
      m_Data: 
      m_BitSize: 0
    m_Weights:
      m_NumItems: 0
      m_Data: 
      m_BitSize: 0
    m_NormalSigns:
      m_NumItems: 0
      m_Data: 
      m_BitSize: 0
    m_TangentSigns:
      m_NumItems: 0
      m_Data: 
      m_BitSize: 0
    m_FloatColors:
      m_NumItems: 0
      m_Range: 0
      m_Start: 0
      m_Data: 
      m_BitSize: 0
    m_BoneIndices:
      m_NumItems: 0
      m_Data: 
      m_BitSize: 0
    m_Triangles:
      m_NumItems: 0
      m_Data: 
      m_BitSize: 0
    m_UVInfo: 0
  m_LocalAABB:
    m_Center: {x: -0.00000013411045, y: 0.034999996, z: 0}
    m_Extent: {x: 0.3476398, y: 0.315, z: 0}
  m_MeshUsageFlags: 0
  m_CookingOptions: 30
  m_BakedConvexCollisionMesh: 
  m_BakedTriangleCollisionMesh: 
  'm_MeshMetrics[0]': 1
  'm_MeshMetrics[1]': 1
  m_MeshOptimizationFlags: 1
  m_StreamData:
    serializedVersion: 2
    offset: 0
    size: 0
    path: 
  m_MeshLodInfo:
    serializedVersion: 2
    m_LodSelectionCurve:
      serializedVersion: 1
      m_LodSlope: 0
      m_LodBias: 0
    m_NumLevels: 1
    m_SubMeshes:
    - serializedVersion: 2
      m_Levels:
      - serializedVersion: 1
        m_IndexStart: 0
        m_IndexCount: 0
