%YAML 1.1
%TAG !u! tag:unity3d.com,2011:
--- !u!43 &4300000
Mesh:
  m_ObjectHideFlags: 0
  m_CorrespondingSourceObject: {fileID: 0}
  m_PrefabInstance: {fileID: 0}
  m_PrefabAsset: {fileID: 0}
  m_Name: ARMesh
  serializedVersion: 12
  m_SubMeshes:
  - serializedVersion: 2
    firstByte: 0
    indexCount: 108
    topology: 0
    baseVertex: 0
    firstVertex: 0
    vertexCount: 38
    localAABB:
      m_Center: {x: -0.013531301, y: 0.10232605, z: 0}
      m_Extent: {x: 0.10983521, y: 0.31793147, z: 0}
  m_Shapes:
    vertices: []
    shapes: []
    channels: []
    fullWeights: []
  m_BindPose: []
  m_BoneNameHashes: 
  m_RootBoneNameHash: 0
  m_BonesAABB: []
  m_VariableBoneCountWeights:
    m_Data: 
  m_MeshCompression: 0
  m_IsReadable: 1
  m_KeepVertices: 0
  m_KeepIndices: 0
  m_IndexFormat: 1
  m_IndexBuffer: 0200000001000000000000000300000000000000010000000000000003000000040000000400000003000000050000000800000007000000060000000a00000004000000090000000c000000060000000b00000009000000040000000d0000000f000000090000000e0000000b00000006000000070000000e00000009000000100000001300000012000000110000001200000014000000110000001400000015000000110000001500000016000000110000001100000016000000070000000b000000070000001600000007000000080000000300000019000000180000001700000017000000180000001a0000001c0000001a0000001b0000001b0000001a0000001d0000001f0000000e0000001e0000001e0000000e000000100000000d00000010000000090000001b0000002000000006000000200000001b0000001d0000001d0000001a0000002100000022000000210000001a00000018000000220000001a00000020000000080000000600000023000000080000002000000024000000100000000d0000000d0000000400000025000000080000000500000003000000050000002500000004000000
  m_VertexData:
    serializedVersion: 3
    m_VertexCount: 38
    m_Channels:
    - stream: 0
      offset: 0
      format: 0
      dimension: 3
    - stream: 0
      offset: 0
      format: 0
      dimension: 0
    - stream: 0
      offset: 0
      format: 0
      dimension: 0
    - stream: 0
      offset: 0
      format: 0
      dimension: 0
    - stream: 0
      offset: 0
      format: 0
      dimension: 0
    - stream: 0
      offset: 0
      format: 0
      dimension: 0
    - stream: 0
      offset: 0
      format: 0
      dimension: 0
    - stream: 0
      offset: 0
      format: 0
      dimension: 0
    - stream: 0
      offset: 0
      format: 0
      dimension: 0
    - stream: 0
      offset: 0
      format: 0
      dimension: 0
    - stream: 0
      offset: 0
      format: 0
      dimension: 0
    - stream: 0
      offset: 0
      format: 0
      dimension: 0
    - stream: 0
      offset: 0
      format: 0
      dimension: 0
    - stream: 0
      offset: 0
      format: 0
      dimension: 0
    m_DataSize: 456
    _typelessdata: 7a6036bd0cef0d3e00000000fb3ac53d5e71d73d000000006260a73d6ded2b3e000000008b5734bdc4b3943d00000000730565bdc1f60d3e000000003798fcbd1a941f3c0000000099a392bd3a2666bc00000000316e34bd4508193d00000000e0a0edbdca181f3c00000000900b88bda4ccb93e000000002c2465bdc9c8b93e000000005d4f34bd8f3b00bc00000000316e34bd56ab65bc00000000d9d0edbdc9c8b93e00000000b70495bd84d2c03e00000000ec1a88bda9cec03e0000000075e0c1bda9cec03e00000000c71d253d5dcdf03b00000000cb8b673d1b3d28bd00000000126d673dc8c0f03b000000002ca81e3dd45b28bd00000000cdd8863b44a275bc00000000c05583bcda4100bc000000009ac72b3c67cc29be00000000bfcc1cbdaac75cbe00000000f6ea883c003a54be00000000e5dc1cbd7b01f1bd0000000003b392bdb53758bd000000009ffb1cbd895658bd00000000160bcdbd895658bd000000000bd1c1bd2728d73e00000000141495bdfe2bd73e00000000acfbccbd8aa166bc000000007eb5d9bd427558bd000000007eb5d9bd98c45cbe000000008391edbd3a2666bc000000006fc1edbdd2cac03e0000000094a7fcbdf2c4b93e00000000
  m_CompressedMesh:
    m_Vertices:
      m_NumItems: 0
      m_Range: 0
      m_Start: 0
      m_Data: 
      m_BitSize: 0
    m_UV:
      m_NumItems: 0
      m_Range: 0
      m_Start: 0
      m_Data: 
      m_BitSize: 0
    m_Normals:
      m_NumItems: 0
      m_Range: 0
      m_Start: 0
      m_Data: 
      m_BitSize: 0
    m_Tangents:
      m_NumItems: 0
      m_Range: 0
      m_Start: 0
      m_Data: 
      m_BitSize: 0
    m_Weights:
      m_NumItems: 0
      m_Data: 
      m_BitSize: 0
    m_NormalSigns:
      m_NumItems: 0
      m_Data: 
      m_BitSize: 0
    m_TangentSigns:
      m_NumItems: 0
      m_Data: 
      m_BitSize: 0
    m_FloatColors:
      m_NumItems: 0
      m_Range: 0
      m_Start: 0
      m_Data: 
      m_BitSize: 0
    m_BoneIndices:
      m_NumItems: 0
      m_Data: 
      m_BitSize: 0
    m_Triangles:
      m_NumItems: 0
      m_Data: 
      m_BitSize: 0
    m_UVInfo: 0
  m_LocalAABB:
    m_Center: {x: -0.013531301, y: 0.10232605, z: 0}
    m_Extent: {x: 0.10983521, y: 0.31793147, z: 0}
  m_MeshUsageFlags: 0
  m_CookingOptions: 30
  m_BakedConvexCollisionMesh: 
  m_BakedTriangleCollisionMesh: 
  'm_MeshMetrics[0]': 1
  'm_MeshMetrics[1]': 1
  m_MeshOptimizationFlags: 1
  m_StreamData:
    serializedVersion: 2
    offset: 0
    size: 0
    path: 
  m_MeshLodInfo:
    serializedVersion: 2
    m_LodSelectionCurve:
      serializedVersion: 1
      m_LodSlope: 0
      m_LodBias: 0
    m_NumLevels: 1
    m_SubMeshes:
    - serializedVersion: 2
      m_Levels:
      - serializedVersion: 1
        m_IndexStart: 0
        m_IndexCount: 0
